<?xml version="1.0" encoding="utf-8"?>
<!-- Generator: Adobe Illustrator 27.8.1, SVG Export Plug-In . SVG Version: 6.00 Build 0)  -->
<svg version="1.1" id="Layer_1" xmlns="http://www.w3.org/2000/svg" xmlns:xlink="http://www.w3.org/1999/xlink" x="0px" y="0px"
	 viewBox="0 0 478 149" style="enable-background:new 0 0 478 149;" xml:space="preserve">
<style type="text/css">
	.st0{fill:url(#SVGID_1_);}
	.st1{fill:url(#SVGID_00000021831508655563554400000007747186069330467227_);}
	.st2{fill:url(#SVGID_00000090272859229519522800000015255437159066278283_);}
	.st3{fill:url(#SVGID_00000026855956246094315920000017695722547299147151_);}
	.st4{fill:url(#SVGID_00000042738094842765494830000000641869286498317214_);}
	.st5{fill:#FFC422;}
	.st6{fill:url(#SVGID_00000123420700084940715650000002627531852639750035_);}
	.st7{fill:url(#SVGID_00000177462015763969291680000000643867423805383351_);}
	.st8{fill:url(#SVGID_00000119092063587364348590000007970602800476976308_);}
	.st9{fill:url(#SVGID_00000012472224206794428190000018160690726949705120_);}
	.st10{fill:url(#SVGID_00000040539964374479552490000010215414965162028479_);}
	.st11{fill:url(#SVGID_00000071547121576479732770000000747673729678107551_);}
	.st12{fill:url(#SVGID_00000103986802255731133440000017513270428481608605_);}
	.st13{fill:url(#SVGID_00000002383061757007631720000018411635124413086625_);}
	.st14{fill:url(#SVGID_00000114767289922089227540000000868298400336448161_);}
	.st15{fill:url(#SVGID_00000078731407753387832390000017237036922007588779_);}
	.st16{fill:url(#SVGID_00000142876717911511429140000005241291203704189105_);}
	.st17{fill:url(#SVGID_00000137132284452656980990000017692621058707084209_);}
	.st18{fill:url(#SVGID_00000148650411424831040660000000503930244066932352_);}
	.st19{fill:url(#SVGID_00000147932416593417750790000017273201003784498063_);}
	.st20{fill:url(#SVGID_00000040547558305233395630000000446440233742668694_);}
</style>
<linearGradient id="SVGID_1_" gradientUnits="userSpaceOnUse" x1="62.3497" y1="74.6976" x2="130.1259" y2="73.9879">
	<stop  offset="0" style="stop-color:#001973"/>
	<stop  offset="1" style="stop-color:#00C4FF"/>
</linearGradient>
<path class="st0" d="M138.94,99.14h-12.17l-2.8-21.6c-0.2-1.52-0.38-3.22-0.54-5.09c-0.16-1.87-0.31-3.9-0.44-6.11
	c-0.3,2.12-0.9,4.76-1.79,7.92c-0.2,0.66-0.34,1.15-0.42,1.47l-6.49,23.41h-8.68l-6.49-23.41c-0.09-0.32-0.22-0.81-0.39-1.47
	c-0.91-3.16-1.51-5.79-1.79-7.88c-0.13,1.89-0.28,3.76-0.46,5.61c-0.17,1.85-0.38,3.7-0.62,5.55l-2.81,21.6h-12.1l7.37-49.96h12.88
	l7.21,25.77c0.04,0.18,0.13,0.48,0.26,0.89c0.67,2.3,1.1,4.27,1.27,5.9c0.09-0.89,0.25-1.87,0.49-2.95
	c0.24-1.08,0.57-2.38,0.98-3.91l7.27-25.7h12.92L138.94,99.14z"/>
<linearGradient id="SVGID_00000162337625483712886770000001812046995713608888_" gradientUnits="userSpaceOnUse" x1="61.5282" y1="75.3216" x2="129.3044" y2="74.6119">
	<stop  offset="0" style="stop-color:#001973"/>
	<stop  offset="1" style="stop-color:#00C4FF"/>
</linearGradient>
<path style="fill:url(#SVGID_00000162337625483712886770000001812046995713608888_);" d="M139.51,99.14l16.47-49.96h16.31
	l16.51,49.96h-12.95l-2.41-8.94h-18.5l-2.48,8.94H139.51z M157.75,80.47h12.95l-4.86-16.48c-0.15-0.5-0.36-1.31-0.62-2.42
	c-0.26-1.11-0.6-2.55-1.01-4.3c-0.28,1.23-0.56,2.4-0.83,3.52c-0.27,1.11-0.55,2.18-0.83,3.21L157.75,80.47z"/>
<linearGradient id="SVGID_00000056422913353370315020000002108666543569673091_" gradientUnits="userSpaceOnUse" x1="57.3927" y1="75.7395" x2="125.1689" y2="75.0298">
	<stop  offset="0" style="stop-color:#001973"/>
	<stop  offset="1" style="stop-color:#00C4FF"/>
</linearGradient>
<path style="fill:url(#SVGID_00000056422913353370315020000002108666543569673091_);" d="M189.23,99.14V49.18h13.6
	c5.33,0,9.04,0.26,11.14,0.77c2.1,0.51,3.91,1.37,5.43,2.58c1.72,1.37,3.04,3.11,3.96,5.22c0.92,2.12,1.39,4.45,1.39,7
	c0,3.87-0.91,7.01-2.72,9.44c-1.82,2.42-4.46,4.03-7.94,4.83l13.02,20.14h-14.71l-10.96-19.56v19.56H189.23z M201.43,72.8h2.41
	c2.81,0,4.85-0.5,6.15-1.5c1.29-1,1.94-2.57,1.94-4.71c0-2.5-0.6-4.28-1.81-5.34c-1.21-1.06-3.24-1.59-6.08-1.59h-2.61V72.8z"/>
<linearGradient id="SVGID_00000014602083432618930010000012894706281204178308_" gradientUnits="userSpaceOnUse" x1="54.9029" y1="76.0739" x2="122.6898" y2="75.3641">
	<stop  offset="0" style="stop-color:#001973"/>
	<stop  offset="1" style="stop-color:#00C4FF"/>
</linearGradient>
<path style="fill:url(#SVGID_00000014602083432618930010000012894706281204178308_);" d="M236.46,99.14V60.99h-10.7V49.18h34.41
	v11.81h-10.7v38.16H236.46z"/>
<linearGradient id="SVGID_00000123412313123423111230000011705669129430148744_" gradientUnits="userSpaceOnUse" x1="261.9149" y1="74.1607" x2="311.204" y2="74.1607">
	<stop  offset="0" style="stop-color:#BF5A00"/>
	<stop  offset="0.5866" style="stop-color:#F6C42A"/>
</linearGradient>
<path style="fill:url(#SVGID_00000123412313123423111230000011705669129430148744_);" d="M261.91,99.14l16.47-49.96h16.31
	l16.51,49.96h-12.95l-2.41-8.94h-18.5l-2.48,8.94H261.91z M280.15,80.47h12.95l-4.86-16.48c-0.15-0.5-0.36-1.31-0.62-2.42
	c-0.26-1.11-0.6-2.55-1.01-4.3c-0.28,1.23-0.56,2.4-0.83,3.52c-0.27,1.11-0.55,2.18-0.83,3.21L280.15,80.47z"/>
<path class="st5" d="M317.89,83c1.93,2.3,3.84,4.02,5.72,5.15c1.88,1.14,3.76,1.71,5.63,1.71c1.74,0,3.17-0.49,4.29-1.47
	c1.12-0.98,1.68-2.22,1.68-3.72c0-1.66-0.48-2.94-1.45-3.84c-0.97-0.9-3.16-1.83-6.57-2.78c-4.68-1.32-7.98-3.04-9.92-5.15
	s-2.9-5.02-2.9-8.7c0-4.78,1.53-8.67,4.58-11.69c3.05-3.01,7.02-4.52,11.89-4.52c2.63,0,5.13,0.37,7.49,1.11
	c2.36,0.74,4.59,1.86,6.7,3.36l-4.08,9.79c-1.48-1.32-3-2.31-4.55-2.99c-1.55-0.67-3.09-1.01-4.62-1.01c-1.57,0-2.84,0.39-3.82,1.18
	c-0.98,0.79-1.47,1.79-1.47,3.02c0,1.25,0.43,2.25,1.29,3c0.86,0.75,2.52,1.47,4.97,2.15l0.59,0.17c5.31,1.5,8.8,3.15,10.47,4.95
	c1.13,1.23,1.99,2.7,2.58,4.42c0.59,1.72,0.88,3.62,0.88,5.72c0,5.3-1.66,9.56-4.99,12.78c-3.33,3.22-7.76,4.83-13.31,4.83
	c-3.33,0-6.36-0.59-9.08-1.77c-2.73-1.18-5.36-3.04-7.88-5.56L317.89,83z"/>
<path class="st5" d="M354.22,83c1.94,2.3,3.84,4.02,5.73,5.15c1.88,1.14,3.76,1.71,5.63,1.71c1.74,0,3.17-0.49,4.29-1.47
	c1.12-0.98,1.68-2.22,1.68-3.72c0-1.66-0.48-2.94-1.45-3.84c-0.97-0.9-3.16-1.83-6.57-2.78c-4.68-1.32-7.98-3.04-9.92-5.15
	c-1.94-2.12-2.9-5.02-2.9-8.7c0-4.78,1.53-8.67,4.58-11.69c3.05-3.01,7.02-4.52,11.89-4.52c2.63,0,5.13,0.37,7.49,1.11
	c2.36,0.74,4.59,1.86,6.7,3.36l-4.08,9.79c-1.48-1.32-3-2.31-4.55-2.99c-1.55-0.67-3.09-1.01-4.62-1.01c-1.57,0-2.84,0.39-3.82,1.18
	c-0.98,0.79-1.47,1.79-1.47,3.02c0,1.25,0.43,2.25,1.29,3c0.86,0.75,2.52,1.47,4.98,2.15l0.59,0.17c5.31,1.5,8.8,3.15,10.47,4.95
	c1.13,1.23,1.99,2.7,2.58,4.42s0.88,3.62,0.88,5.72c0,5.3-1.66,9.56-4.99,12.78c-3.33,3.22-7.76,4.83-13.31,4.83
	c-3.33,0-6.36-0.59-9.08-1.77c-2.73-1.18-5.36-3.04-7.88-5.56L354.22,83z"/>
<path class="st5" d="M386.28,99.14V49.18h13.15v49.96H386.28z"/>
<path class="st5" d="M407.91,83c1.93,2.3,3.84,4.02,5.72,5.15c1.88,1.14,3.76,1.71,5.63,1.71c1.74,0,3.17-0.49,4.29-1.47
	c1.12-0.98,1.68-2.22,1.68-3.72c0-1.66-0.48-2.94-1.45-3.84c-0.97-0.9-3.16-1.83-6.57-2.78c-4.68-1.32-7.98-3.04-9.92-5.15
	s-2.9-5.02-2.9-8.7c0-4.78,1.53-8.67,4.58-11.69c3.05-3.01,7.02-4.52,11.89-4.52c2.63,0,5.13,0.37,7.49,1.11
	c2.36,0.74,4.59,1.86,6.7,3.36l-4.08,9.79c-1.48-1.32-3-2.31-4.55-2.99c-1.55-0.67-3.09-1.01-4.62-1.01c-1.57,0-2.84,0.39-3.82,1.18
	c-0.98,0.79-1.47,1.79-1.47,3.02c0,1.25,0.43,2.25,1.29,3c0.86,0.75,2.52,1.47,4.97,2.15l0.59,0.17c5.31,1.5,8.8,3.15,10.47,4.95
	c1.13,1.23,1.99,2.7,2.58,4.42c0.59,1.72,0.88,3.62,0.88,5.72c0,5.3-1.66,9.56-4.99,12.78c-3.33,3.22-7.76,4.83-13.31,4.83
	c-3.33,0-6.36-0.59-9.08-1.77c-2.73-1.18-5.36-3.04-7.88-5.56L407.91,83z"/>
<linearGradient id="SVGID_00000167360567847344024390000001085659223588162493_" gradientUnits="userSpaceOnUse" x1="437.4792" y1="74.1607" x2="471.8938" y2="74.1607">
	<stop  offset="0.423" style="stop-color:#F6C42A"/>
	<stop  offset="1" style="stop-color:#BF5A00"/>
</linearGradient>
<path style="fill:url(#SVGID_00000167360567847344024390000001085659223588162493_);" d="M448.18,99.14V60.99h-10.7V49.18h34.41
	v11.81h-10.7v38.16H448.18z"/>
<linearGradient id="SVGID_00000142157090892627998000000011108168180488521655_" gradientUnits="userSpaceOnUse" x1="62.3497" y1="74.6976" x2="130.1259" y2="73.9879">
	<stop  offset="0" style="stop-color:#001973"/>
	<stop  offset="1" style="stop-color:#00C4FF"/>
</linearGradient>
<path style="fill:url(#SVGID_00000142157090892627998000000011108168180488521655_);" d="M138.94,99.14h-12.17l-2.8-21.6
	c-0.2-1.52-0.38-3.22-0.54-5.09c-0.16-1.87-0.31-3.9-0.44-6.11c-0.3,2.12-0.9,4.76-1.79,7.92c-0.2,0.66-0.34,1.15-0.42,1.47
	l-6.49,23.41h-8.68l-6.49-23.41c-0.09-0.32-0.22-0.81-0.39-1.47c-0.91-3.16-1.51-5.79-1.79-7.88c-0.13,1.89-0.28,3.76-0.46,5.61
	c-0.17,1.85-0.38,3.7-0.62,5.55l-2.81,21.6h-12.1l7.37-49.96h12.88l7.21,25.77c0.04,0.18,0.13,0.48,0.26,0.89
	c0.67,2.3,1.1,4.27,1.27,5.9c0.09-0.89,0.25-1.87,0.49-2.95c0.24-1.08,0.57-2.38,0.98-3.91l7.27-25.7h12.92L138.94,99.14z"/>
<linearGradient id="SVGID_00000085971319050009168130000005116007516896234641_" gradientUnits="userSpaceOnUse" x1="61.5282" y1="75.3216" x2="129.3044" y2="74.6119">
	<stop  offset="0" style="stop-color:#001973"/>
	<stop  offset="1" style="stop-color:#00C4FF"/>
</linearGradient>
<path style="fill:url(#SVGID_00000085971319050009168130000005116007516896234641_);" d="M139.51,99.14l16.47-49.96h16.31
	l16.51,49.96h-12.95l-2.41-8.94h-18.5l-2.48,8.94H139.51z M157.75,80.47h12.95l-4.86-16.48c-0.15-0.5-0.36-1.31-0.62-2.42
	c-0.26-1.11-0.6-2.55-1.01-4.3c-0.28,1.23-0.56,2.4-0.83,3.52c-0.27,1.11-0.55,2.18-0.83,3.21L157.75,80.47z"/>
<linearGradient id="SVGID_00000040559868946681107420000006355516860124651663_" gradientUnits="userSpaceOnUse" x1="57.3927" y1="75.7395" x2="125.1689" y2="75.0298">
	<stop  offset="0" style="stop-color:#001973"/>
	<stop  offset="1" style="stop-color:#00C4FF"/>
</linearGradient>
<path style="fill:url(#SVGID_00000040559868946681107420000006355516860124651663_);" d="M189.23,99.14V49.18h13.6
	c5.33,0,9.04,0.26,11.14,0.77c2.1,0.51,3.91,1.37,5.43,2.58c1.72,1.37,3.04,3.11,3.96,5.22c0.92,2.12,1.39,4.45,1.39,7
	c0,3.87-0.91,7.01-2.72,9.44c-1.82,2.42-4.46,4.03-7.94,4.83l13.02,20.14h-14.71l-10.96-19.56v19.56H189.23z M201.43,72.8h2.41
	c2.81,0,4.85-0.5,6.15-1.5c1.29-1,1.94-2.57,1.94-4.71c0-2.5-0.6-4.28-1.81-5.34c-1.21-1.06-3.24-1.59-6.08-1.59h-2.61V72.8z"/>
<linearGradient id="SVGID_00000001622402361132295190000011971015931962398387_" gradientUnits="userSpaceOnUse" x1="54.9029" y1="76.0739" x2="122.6898" y2="75.3641">
	<stop  offset="0" style="stop-color:#001973"/>
	<stop  offset="1" style="stop-color:#00C4FF"/>
</linearGradient>
<path style="fill:url(#SVGID_00000001622402361132295190000011971015931962398387_);" d="M236.46,99.14V60.99h-10.7V49.18h34.41
	v11.81h-10.7v38.16H236.46z"/>
<linearGradient id="SVGID_00000152969909854356156220000010852986043214249906_" gradientUnits="userSpaceOnUse" x1="261.9149" y1="74.1607" x2="311.204" y2="74.1607">
	<stop  offset="0" style="stop-color:#BF5A00"/>
	<stop  offset="0.5866" style="stop-color:#F6C42A"/>
</linearGradient>
<path style="fill:url(#SVGID_00000152969909854356156220000010852986043214249906_);" d="M261.91,99.14l16.47-49.96h16.31
	l16.51,49.96h-12.95l-2.41-8.94h-18.5l-2.48,8.94H261.91z M280.15,80.47h12.95l-4.86-16.48c-0.15-0.5-0.36-1.31-0.62-2.42
	c-0.26-1.11-0.6-2.55-1.01-4.3c-0.28,1.23-0.56,2.4-0.83,3.52c-0.27,1.11-0.55,2.18-0.83,3.21L280.15,80.47z"/>
<path class="st5" d="M317.89,83c1.93,2.3,3.84,4.02,5.72,5.15c1.88,1.14,3.76,1.71,5.63,1.71c1.74,0,3.17-0.49,4.29-1.47
	c1.12-0.98,1.68-2.22,1.68-3.72c0-1.66-0.48-2.94-1.45-3.84c-0.97-0.9-3.16-1.83-6.57-2.78c-4.68-1.32-7.98-3.04-9.92-5.15
	s-2.9-5.02-2.9-8.7c0-4.78,1.53-8.67,4.58-11.69c3.05-3.01,7.02-4.52,11.89-4.52c2.63,0,5.13,0.37,7.49,1.11
	c2.36,0.74,4.59,1.86,6.7,3.36l-4.08,9.79c-1.48-1.32-3-2.31-4.55-2.99c-1.55-0.67-3.09-1.01-4.62-1.01c-1.57,0-2.84,0.39-3.82,1.18
	c-0.98,0.79-1.47,1.79-1.47,3.02c0,1.25,0.43,2.25,1.29,3c0.86,0.75,2.52,1.47,4.97,2.15l0.59,0.17c5.31,1.5,8.8,3.15,10.47,4.95
	c1.13,1.23,1.99,2.7,2.58,4.42c0.59,1.72,0.88,3.62,0.88,5.72c0,5.3-1.66,9.56-4.99,12.78c-3.33,3.22-7.76,4.83-13.31,4.83
	c-3.33,0-6.36-0.59-9.08-1.77c-2.73-1.18-5.36-3.04-7.88-5.56L317.89,83z"/>
<path class="st5" d="M354.22,83c1.94,2.3,3.84,4.02,5.73,5.15c1.88,1.14,3.76,1.71,5.63,1.71c1.74,0,3.17-0.49,4.29-1.47
	c1.12-0.98,1.68-2.22,1.68-3.72c0-1.66-0.48-2.94-1.45-3.84c-0.97-0.9-3.16-1.83-6.57-2.78c-4.68-1.32-7.98-3.04-9.92-5.15
	c-1.94-2.12-2.9-5.02-2.9-8.7c0-4.78,1.53-8.67,4.58-11.69c3.05-3.01,7.02-4.52,11.89-4.52c2.63,0,5.13,0.37,7.49,1.11
	c2.36,0.74,4.59,1.86,6.7,3.36l-4.08,9.79c-1.48-1.32-3-2.31-4.55-2.99c-1.55-0.67-3.09-1.01-4.62-1.01c-1.57,0-2.84,0.39-3.82,1.18
	c-0.98,0.79-1.47,1.79-1.47,3.02c0,1.25,0.43,2.25,1.29,3c0.86,0.75,2.52,1.47,4.98,2.15l0.59,0.17c5.31,1.5,8.8,3.15,10.47,4.95
	c1.13,1.23,1.99,2.7,2.58,4.42s0.88,3.62,0.88,5.72c0,5.3-1.66,9.56-4.99,12.78c-3.33,3.22-7.76,4.83-13.31,4.83
	c-3.33,0-6.36-0.59-9.08-1.77c-2.73-1.18-5.36-3.04-7.88-5.56L354.22,83z"/>
<path class="st5" d="M386.28,99.14V49.18h13.15v49.96H386.28z"/>
<path class="st5" d="M407.91,83c1.93,2.3,3.84,4.02,5.72,5.15c1.88,1.14,3.76,1.71,5.63,1.71c1.74,0,3.17-0.49,4.29-1.47
	c1.12-0.98,1.68-2.22,1.68-3.72c0-1.66-0.48-2.94-1.45-3.84c-0.97-0.9-3.16-1.83-6.57-2.78c-4.68-1.32-7.98-3.04-9.92-5.15
	s-2.9-5.02-2.9-8.7c0-4.78,1.53-8.67,4.58-11.69c3.05-3.01,7.02-4.52,11.89-4.52c2.63,0,5.13,0.37,7.49,1.11
	c2.36,0.74,4.59,1.86,6.7,3.36l-4.08,9.79c-1.48-1.32-3-2.31-4.55-2.99c-1.55-0.67-3.09-1.01-4.62-1.01c-1.57,0-2.84,0.39-3.82,1.18
	c-0.98,0.79-1.47,1.79-1.47,3.02c0,1.25,0.43,2.25,1.29,3c0.86,0.75,2.52,1.47,4.97,2.15l0.59,0.17c5.31,1.5,8.8,3.15,10.47,4.95
	c1.13,1.23,1.99,2.7,2.58,4.42c0.59,1.72,0.88,3.62,0.88,5.72c0,5.3-1.66,9.56-4.99,12.78c-3.33,3.22-7.76,4.83-13.31,4.83
	c-3.33,0-6.36-0.59-9.08-1.77c-2.73-1.18-5.36-3.04-7.88-5.56L407.91,83z"/>
<linearGradient id="SVGID_00000009563686339817101320000008687134384192540859_" gradientUnits="userSpaceOnUse" x1="437.4792" y1="74.1607" x2="471.8938" y2="74.1607">
	<stop  offset="0.423" style="stop-color:#F6C42A"/>
	<stop  offset="1" style="stop-color:#BF5A00"/>
</linearGradient>
<path style="fill:url(#SVGID_00000009563686339817101320000008687134384192540859_);" d="M448.18,99.14V60.99h-10.7V49.18h34.41
	v11.81h-10.7v38.16H448.18z"/>
<g>
	<g>
		<g>
			
				<linearGradient id="SVGID_00000142158395270923705040000010169466075133863815_" gradientUnits="userSpaceOnUse" x1="46.4956" y1="553.9763" x2="-23.6029" y2="549.2581" gradientTransform="matrix(1 0 0 1 36.8984 -511.7598)">
				<stop  offset="0" style="stop-color:#00C4FF"/>
				<stop  offset="1" style="stop-color:#001973"/>
			</linearGradient>
			<path style="fill:url(#SVGID_00000142158395270923705040000010169466075133863815_);" d="M75.35,18.5
				c0.23,8.4-3.29,13.84-10.44,18.04c-8.76,5.14-17.82,10.43-26.64,15.5c-9.78,5.63-12.21,12.5-5.19,21.57
				c-2.28,5-10.24,4.08-14.63,3.36c-4.92-2.99-6.35-9.53-6.07-14.87c0.4-7.6,4.43-14.84,9.95-19.98
				C39.97,28.82,57.62,15.55,75.31,2.32C75.31,7.71,75.32,13.1,75.35,18.5z"/>
			
				<linearGradient id="SVGID_00000094581503199955511450000011673209856157420954_" gradientUnits="userSpaceOnUse" x1="31.08" y1="60.3715" x2="-7.1703" y2="57.797" gradientTransform="matrix(1 0 0 1 13.5312 11.9297)">
				<stop  offset="0" style="stop-color:#001973"/>
				<stop  offset="1" style="stop-color:#00C4FF"/>
			</linearGradient>
			<path style="fill:url(#SVGID_00000094581503199955511450000011673209856157420954_);" d="M33.08,73.61c0,0-1.07-0.86-2.83-2.43
				c-8.34-7.43-19.22-18.92-7.93-29.06c-3.72,2.82-6.83,6.23-9.52,9.82c-7.99,10.7-6.43,27.91-6.05,40.75
				c0.18,6.17,7.48,7.54,12.11,5.07c5.11-2.72,10.56-5.77,15.5-8.43C41.96,85.25,38.23,77.75,33.08,73.61z"/>
		</g>
		<g>
			
				<linearGradient id="SVGID_00000168837145074856601080000016125110579612050347_" gradientUnits="userSpaceOnUse" x1="919.8036" y1="3971.803" x2="849.7057" y2="3967.085" gradientTransform="matrix(-1 0 0 -1 918.7871 4077.9082)">
				<stop  offset="0" style="stop-color:#00C4FF"/>
				<stop  offset="1" style="stop-color:#001973"/>
			</linearGradient>
			<path style="fill:url(#SVGID_00000168837145074856601080000016125110579612050347_);" d="M7.02,129.83
				c-0.23-8.41,3.28-13.84,10.44-18.04c8.76-5.14,17.82-10.43,26.64-15.5c9.77-5.62,12.21-12.5,5.19-21.57
				c2.28-5,10.24-4.08,14.63-3.36c4.92,2.99,6.35,9.53,6.07,14.87c-0.39,7.6-4.43,14.84-9.95,19.98
				C42.41,119.5,24.76,132.77,7.07,146C7.07,140.61,7.05,135.22,7.02,129.83z"/>
			
				<linearGradient id="SVGID_00000069382167901510340330000008290661987940204215_" gradientUnits="userSpaceOnUse" x1="904.3879" y1="3478.1985" x2="866.1362" y2="3475.6238" gradientTransform="matrix(-1 0 0 -1 942.1543 3554.2188)">
				<stop  offset="0" style="stop-color:#001973"/>
				<stop  offset="1" style="stop-color:#00C4FF"/>
			</linearGradient>
			<path style="fill:url(#SVGID_00000069382167901510340330000008290661987940204215_);" d="M49.3,74.71c0,0,1.07,0.86,2.83,2.43
				c8.34,7.43,19.22,18.92,7.93,29.06c3.72-2.82,6.83-6.23,9.51-9.82c7.99-10.7,6.44-27.91,6.05-40.75
				c-0.19-6.17-7.47-7.54-12.11-5.07C58.39,53.28,52.94,56.33,48,59C40.42,63.08,44.15,70.57,49.3,74.71z"/>
		</g>
	</g>
</g>
<g>
	<g>
		<g>
			
				<linearGradient id="SVGID_00000157989826481847108030000015450804068977461661_" gradientUnits="userSpaceOnUse" x1="46.4956" y1="553.9763" x2="-23.6029" y2="549.2581" gradientTransform="matrix(1 0 0 1 36.8984 -511.7598)">
				<stop  offset="0" style="stop-color:#00C4FF"/>
				<stop  offset="1" style="stop-color:#001973"/>
			</linearGradient>
			<path style="fill:url(#SVGID_00000157989826481847108030000015450804068977461661_);" d="M75.35,18.5
				c0.23,8.4-3.29,13.84-10.44,18.04c-8.76,5.14-17.82,10.43-26.64,15.5c-9.78,5.63-12.21,12.5-5.19,21.57
				c-2.28,5-10.24,4.08-14.63,3.36c-4.92-2.99-6.35-9.53-6.07-14.87c0.4-7.6,4.43-14.84,9.95-19.98
				C39.97,28.82,57.62,15.55,75.31,2.32C75.31,7.71,75.32,13.1,75.35,18.5z"/>
			
				<linearGradient id="SVGID_00000019663744254506589240000016363562005396511655_" gradientUnits="userSpaceOnUse" x1="31.08" y1="60.3715" x2="-7.1703" y2="57.797" gradientTransform="matrix(1 0 0 1 13.5312 11.9297)">
				<stop  offset="0" style="stop-color:#001973"/>
				<stop  offset="1" style="stop-color:#00C4FF"/>
			</linearGradient>
			<path style="fill:url(#SVGID_00000019663744254506589240000016363562005396511655_);" d="M33.08,73.61c0,0-1.07-0.86-2.83-2.43
				c-8.34-7.43-19.22-18.92-7.93-29.06c-3.72,2.82-6.83,6.23-9.52,9.82c-7.99,10.7-6.43,27.91-6.05,40.75
				c0.18,6.17,7.48,7.54,12.11,5.07c5.11-2.72,10.56-5.77,15.5-8.43C41.96,85.25,38.23,77.75,33.08,73.61z"/>
		</g>
		<g>
			
				<linearGradient id="SVGID_00000114788322850965496100000000279258491794145412_" gradientUnits="userSpaceOnUse" x1="919.8036" y1="3971.803" x2="849.7057" y2="3967.085" gradientTransform="matrix(-1 0 0 -1 918.7871 4077.9082)">
				<stop  offset="0" style="stop-color:#00C4FF"/>
				<stop  offset="1" style="stop-color:#001973"/>
			</linearGradient>
			<path style="fill:url(#SVGID_00000114788322850965496100000000279258491794145412_);" d="M7.02,129.83
				c-0.23-8.41,3.28-13.84,10.44-18.04c8.76-5.14,17.82-10.43,26.64-15.5c9.77-5.62,12.21-12.5,5.19-21.57
				c2.28-5,10.24-4.08,14.63-3.36c4.92,2.99,6.35,9.53,6.07,14.87c-0.39,7.6-4.43,14.84-9.95,19.98
				C42.41,119.5,24.76,132.77,7.07,146C7.07,140.61,7.05,135.22,7.02,129.83z"/>
			
				<linearGradient id="SVGID_00000025408698606963243410000005145798467636422804_" gradientUnits="userSpaceOnUse" x1="904.3879" y1="3478.1985" x2="866.1362" y2="3475.6238" gradientTransform="matrix(-1 0 0 -1 942.1543 3554.2188)">
				<stop  offset="0" style="stop-color:#001973"/>
				<stop  offset="1" style="stop-color:#00C4FF"/>
			</linearGradient>
			<path style="fill:url(#SVGID_00000025408698606963243410000005145798467636422804_);" d="M49.3,74.71c0,0,1.07,0.86,2.83,2.43
				c8.34,7.43,19.22,18.92,7.93,29.06c3.72-2.82,6.83-6.23,9.51-9.82c7.99-10.7,6.44-27.91,6.05-40.75
				c-0.19-6.17-7.47-7.54-12.11-5.07C58.39,53.28,52.94,56.33,48,59C40.42,63.08,44.15,70.57,49.3,74.71z"/>
		</g>
	</g>
</g>
</svg>
