<?xml version="1.0" encoding="utf-8"?>
<!-- Generator: Adobe Illustrator 23.0.1, SVG Export Plug-In . SVG Version: 6.00 Build 0)  -->
<svg version="1.1" id="Layer_1" xmlns="http://www.w3.org/2000/svg" xmlns:xlink="http://www.w3.org/1999/xlink" x="0px" y="0px"
	 viewBox="0 0 20.6 21" style="enable-background:new 0 0 20.6 21;" xml:space="preserve">
<style type="text/css">
	.st0{fill-rule:evenodd;clip-rule:evenodd;fill:url(#SVGID_2_);}
	.st1{clip-path:url(#SVGID_4_);fill:url(#SVGID_6_);}
	.st2{fill-rule:evenodd;clip-rule:evenodd;fill:url(#SVGID_7_);}
	.st3{clip-path:url(#SVGID_10_);fill:url(#SVGID_11_);}
	.st4{fill-rule:evenodd;clip-rule:evenodd;fill:url(#SVGID_12_);}
	.st5{clip-path:url(#SVGID_15_);fill:url(#SVGID_16_);}
	.st6{fill-rule:evenodd;clip-rule:evenodd;fill:url(#SVGID_18_);}
	.st7{clip-path:url(#SVGID_20_);fill:url(#SVGID_22_);}
	.st8{fill-rule:evenodd;clip-rule:evenodd;fill:url(#SVGID_23_);}
	.st9{clip-path:url(#SVGID_25_);fill:url(#SVGID_26_);}
	.st10{fill-rule:evenodd;clip-rule:evenodd;fill:url(#SVGID_27_);}
	.st11{clip-path:url(#SVGID_29_);fill:url(#SVGID_30_);}
</style>
<g>
	<g>
		<g>
			<g>
				
					<linearGradient id="SVGID_2_" gradientUnits="userSpaceOnUse" x1="3.3101" y1="18.2828" x2="6.5609" y2="7.2302" gradientTransform="matrix(1 0 0 -1 0 21.89)">
					<stop  offset="0" style="stop-color:#1228A2"/>
					<stop  offset="0.1836" style="stop-color:#112EA2"/>
					<stop  offset="0.4256" style="stop-color:#0D3EA4"/>
					<stop  offset="0.7001" style="stop-color:#085AA5"/>
					<stop  offset="0.9969" style="stop-color:#0080A8"/>
					<stop  offset="1" style="stop-color:#0080A8"/>
				</linearGradient>
				<path id="SVGID_1_" class="st0" d="M8.1,13.3c0.4,0.3,0.9,0.5,1.3,0.6c-1.2,0.2-2.5,0.1-3.7-0.3c-0.9-0.4-1.8-0.9-2.4-1.7
					c-0.7-0.7-1.2-1.6-1.5-2.5C0.4,4.9,2.8,4,6.2,2.5C4.9,4,4.3,6.1,4.6,8.1C4.9,10.3,6.2,12.2,8.1,13.3"/>
			</g>
			<g>
				<defs>
					<path id="SVGID_3_" d="M8.1,13.3c0.4,0.3,0.9,0.5,1.3,0.6c-1.2,0.2-2.5,0.1-3.7-0.3c-0.9-0.4-1.8-0.9-2.4-1.7
						c-0.7-0.7-1.2-1.6-1.5-2.5C0.4,4.9,2.8,4,6.2,2.5C4.9,4,4.3,6.1,4.6,8.1C4.9,10.3,6.2,12.2,8.1,13.3"/>
				</defs>
				<clipPath id="SVGID_4_">
					<use xlink:href="#SVGID_3_"  style="overflow:visible;"/>
				</clipPath>
				
					<linearGradient id="SVGID_6_" gradientUnits="userSpaceOnUse" x1="3.4895" y1="18.3356" x2="6.7403" y2="7.283" gradientTransform="matrix(1 0 0 -1 0 21.89)">
					<stop  offset="0" style="stop-color:#1228A2"/>
					<stop  offset="0.1836" style="stop-color:#112EA2"/>
					<stop  offset="0.4256" style="stop-color:#0D3EA4"/>
					<stop  offset="0.7001" style="stop-color:#085AA5"/>
					<stop  offset="0.9969" style="stop-color:#0080A8"/>
					<stop  offset="1" style="stop-color:#0080A8"/>
				</linearGradient>
				<rect x="0.4" y="2.5" class="st1" width="9" height="11.7"/>
			</g>
		</g>
		<g>
			<g>
				
					<linearGradient id="SVGID_7_" gradientUnits="userSpaceOnUse" x1="20.3465" y1="13.8707" x2="9.1494" y2="16.8687" gradientTransform="matrix(1 0 0 -1 0 21.89)">
					<stop  offset="0" style="stop-color:#1228A2"/>
					<stop  offset="0.1836" style="stop-color:#112EA2"/>
					<stop  offset="0.4256" style="stop-color:#0D3EA4"/>
					<stop  offset="0.7001" style="stop-color:#085AA5"/>
					<stop  offset="0.9969" style="stop-color:#0080A8"/>
					<stop  offset="1" style="stop-color:#0080A8"/>
				</linearGradient>
				<path id="SVGID_5_" class="st2" d="M9.1,7C8.7,7.2,8.3,7.5,8,7.9c0.4-1.2,1.2-2.3,2.1-3c0.8-0.6,1.7-1.1,2.7-1.3s2-0.2,2.9,0
					c4.5,1,4.1,3.5,3.8,7.2c-0.7-1.9-2.2-3.4-4.1-4.2C13.3,5.7,11,5.9,9.1,7"/>
			</g>
			<g>
				<defs>
					<path id="SVGID_8_" d="M9.1,7C8.7,7.2,8.3,7.5,8,7.9c0.4-1.2,1.2-2.3,2.1-3c0.8-0.6,1.7-1.1,2.7-1.3s2-0.2,2.9,0
						c4.5,1,4.1,3.5,3.8,7.2c-0.7-1.9-2.2-3.4-4.1-4.2C13.3,5.7,11,5.9,9.1,7"/>
				</defs>
				<clipPath id="SVGID_10_">
					<use xlink:href="#SVGID_8_"  style="overflow:visible;"/>
				</clipPath>
				
					<linearGradient id="SVGID_11_" gradientUnits="userSpaceOnUse" x1="20.1867" y1="13.2737" x2="8.9896" y2="16.2717" gradientTransform="matrix(1 0 0 -1 0 21.89)">
					<stop  offset="0" style="stop-color:#1228A2"/>
					<stop  offset="0.1836" style="stop-color:#112EA2"/>
					<stop  offset="0.4256" style="stop-color:#0D3EA4"/>
					<stop  offset="0.7001" style="stop-color:#085AA5"/>
					<stop  offset="0.9969" style="stop-color:#0080A8"/>
					<stop  offset="1" style="stop-color:#0080A8"/>
				</linearGradient>
				<rect x="8" y="3.3" class="st3" width="12.3" height="7.4"/>
			</g>
		</g>
		<g>
			<g>
				
					<linearGradient id="SVGID_12_" gradientUnits="userSpaceOnUse" x1="11.7916" y1="5.8724" x2="1.2085" y2="8.5091" gradientTransform="matrix(1 0 0 -1 0 21.89)">
					<stop  offset="0" style="stop-color:#FDC908"/>
					<stop  offset="0.2872" style="stop-color:#F7C309"/>
					<stop  offset="0.6648" style="stop-color:#E7B30A"/>
					<stop  offset="1" style="stop-color:#D29F0C"/>
				</linearGradient>
				<path id="SVGID_9_" class="st4" d="M11.7,14.1c0.4-0.2,0.9-0.5,1.2-0.9c-0.4,1.2-1.2,2.3-2.1,3c-0.8,0.6-1.7,1.1-2.7,1.3
					c-1,0.2-2,0.2-2.9,0c-4.5-1-4.1-3.5-3.8-7.2c0.7,1.9,2.2,3.4,4.1,4.2C7.6,15.3,9.8,15.2,11.7,14.1"/>
			</g>
			<g>
				<defs>
					<path id="SVGID_14_" d="M11.7,14.1c0.4-0.2,0.9-0.5,1.2-0.9c-0.4,1.2-1.2,2.3-2.1,3c-0.8,0.6-1.7,1.1-2.7,1.3
						c-1,0.2-2,0.2-2.9,0c-4.5-1-4.1-3.5-3.8-7.2c0.7,1.9,2.2,3.4,4.1,4.2C7.6,15.3,9.8,15.2,11.7,14.1"/>
				</defs>
				<clipPath id="SVGID_15_">
					<use xlink:href="#SVGID_14_"  style="overflow:visible;"/>
				</clipPath>
				
					<linearGradient id="SVGID_16_" gradientUnits="userSpaceOnUse" x1="11.976" y1="6.6129" x2="1.393" y2="9.2496" gradientTransform="matrix(1 0 0 -1 0 21.89)">
					<stop  offset="0" style="stop-color:#FDC908"/>
					<stop  offset="0.2872" style="stop-color:#F7C309"/>
					<stop  offset="0.6648" style="stop-color:#E7B30A"/>
					<stop  offset="1" style="stop-color:#D29F0C"/>
				</linearGradient>
				<rect x="0.7" y="10.3" class="st5" width="12.3" height="7.4"/>
			</g>
		</g>
		<g>
			<g>
				
					<linearGradient id="SVGID_18_" gradientUnits="userSpaceOnUse" x1="6.3803" y1="12.3239" x2="11.9066" y2="20.2702" gradientTransform="matrix(1 0 0 -1 0 21.89)">
					<stop  offset="0" style="stop-color:#FDC908"/>
					<stop  offset="0.2872" style="stop-color:#F7C309"/>
					<stop  offset="0.6648" style="stop-color:#E7B30A"/>
					<stop  offset="1" style="stop-color:#D29F0C"/>
				</linearGradient>
				<path id="SVGID_13_" class="st6" d="M6.8,10c0,0.5,0,1,0.2,1.5c-0.8-1-1.4-2.1-1.6-3.4c-0.1-1-0.1-2,0.2-2.9
					c0.3-0.9,0.8-1.8,1.5-2.6c3.1-3.4,5.1-1.8,8.1,0.3c-2-0.3-4.1,0.2-5.7,1.5C7.8,5.7,6.8,7.8,6.8,10"/>
			</g>
			<g>
				<defs>
					<path id="SVGID_19_" d="M6.8,10c0,0.5,0,1,0.2,1.5c-0.8-1-1.4-2.1-1.6-3.4c-0.1-1-0.1-2,0.2-2.9c0.3-0.9,0.8-1.8,1.5-2.6
						c3.1-3.4,5.1-1.8,8.1,0.3c-2-0.3-4.1,0.2-5.7,1.5C7.8,5.7,6.8,7.8,6.8,10"/>
				</defs>
				<clipPath id="SVGID_20_">
					<use xlink:href="#SVGID_19_"  style="overflow:visible;"/>
				</clipPath>
				
					<linearGradient id="SVGID_22_" gradientUnits="userSpaceOnUse" x1="6.9991" y1="11.8936" x2="12.5254" y2="19.8399" gradientTransform="matrix(1 0 0 -1 0 21.89)">
					<stop  offset="0" style="stop-color:#FDC908"/>
					<stop  offset="0.2872" style="stop-color:#F7C309"/>
					<stop  offset="0.6648" style="stop-color:#E7B30A"/>
					<stop  offset="1" style="stop-color:#D29F0C"/>
				</linearGradient>
				<rect x="5.3" y="-0.9" class="st7" width="10" height="12.3"/>
			</g>
		</g>
		<g>
			<g>
				
					<linearGradient id="SVGID_23_" gradientUnits="userSpaceOnUse" x1="13.9209" y1="15.1877" x2="17.2078" y2="5.8688" gradientTransform="matrix(1 0 0 -1 0 21.89)">
					<stop  offset="0" style="stop-color:#FDC908"/>
					<stop  offset="0.2872" style="stop-color:#F7C309"/>
					<stop  offset="0.6648" style="stop-color:#E7B30A"/>
					<stop  offset="1" style="stop-color:#D29F0C"/>
				</linearGradient>
				<path id="SVGID_17_" class="st8" d="M12.8,7.8c-0.4-0.3-0.9-0.5-1.3-0.6C12.7,7,14,7.1,15.2,7.5c0.9,0.4,1.8,0.9,2.4,1.7
					c0.7,0.7,1.2,1.6,1.5,2.5c1.4,4.4-1,5.3-4.4,6.9c1.3-1.6,1.9-3.6,1.6-5.7C15.9,10.8,14.7,8.9,12.8,7.8"/>
			</g>
			<g>
				<defs>
					<path id="SVGID_24_" d="M12.8,7.8c-0.4-0.3-0.9-0.5-1.3-0.6C12.7,7,14,7.1,15.2,7.5c0.9,0.4,1.8,0.9,2.4,1.7
						c0.7,0.7,1.2,1.6,1.5,2.5c1.4,4.4-1,5.3-4.4,6.9c1.3-1.6,1.9-3.6,1.6-5.7C15.9,10.8,14.7,8.9,12.8,7.8"/>
				</defs>
				<clipPath id="SVGID_25_">
					<use xlink:href="#SVGID_24_"  style="overflow:visible;"/>
				</clipPath>
				
					<linearGradient id="SVGID_26_" gradientUnits="userSpaceOnUse" x1="13.7839" y1="15.1394" x2="17.0708" y2="5.8205" gradientTransform="matrix(1 0 0 -1 0 21.89)">
					<stop  offset="0" style="stop-color:#FDC908"/>
					<stop  offset="0.2872" style="stop-color:#F7C309"/>
					<stop  offset="0.6648" style="stop-color:#E7B30A"/>
					<stop  offset="1" style="stop-color:#D29F0C"/>
				</linearGradient>
				<rect x="11.4" y="6.9" class="st9" width="9" height="11.7"/>
			</g>
		</g>
		<g>
			<g>
				
					<linearGradient id="SVGID_27_" gradientUnits="userSpaceOnUse" x1="7.9361" y1="1.7847" x2="15.7741" y2="9.8033" gradientTransform="matrix(1 0 0 -1 0 21.89)">
					<stop  offset="0" style="stop-color:#1228A2"/>
					<stop  offset="0.1836" style="stop-color:#112EA2"/>
					<stop  offset="0.4256" style="stop-color:#0D3EA4"/>
					<stop  offset="0.7001" style="stop-color:#085AA5"/>
					<stop  offset="0.9969" style="stop-color:#0080A8"/>
					<stop  offset="1" style="stop-color:#0080A8"/>
				</linearGradient>
				<path id="SVGID_21_" class="st10" d="M14.1,11.1c0-0.5,0-1-0.2-1.5c0.8,1,1.4,2.1,1.6,3.4c0.1,1,0.1,2-0.2,2.9
					c-0.3,0.9-0.8,1.8-1.5,2.6c-3.1,3.4-5.1,1.8-8.1-0.3c2,0.3,4.1-0.2,5.7-1.5C13.1,15.3,14.1,13.3,14.1,11.1"/>
			</g>
			<g>
				<defs>
					<path id="SVGID_28_" d="M14.1,11.1c0-0.5,0-1-0.2-1.5c0.8,1,1.4,2.1,1.6,3.4c0.1,1,0.1,2-0.2,2.9c-0.3,0.9-0.8,1.8-1.5,2.6
						c-3.1,3.4-5.1,1.8-8.1-0.3c2,0.3,4.1-0.2,5.7-1.5C13.1,15.3,14.1,13.3,14.1,11.1"/>
				</defs>
				<clipPath id="SVGID_29_">
					<use xlink:href="#SVGID_28_"  style="overflow:visible;"/>
				</clipPath>
				
					<linearGradient id="SVGID_30_" gradientUnits="userSpaceOnUse" x1="7.1724" y1="2.5312" x2="15.0104" y2="10.5498" gradientTransform="matrix(1 0 0 -1 0 21.89)">
					<stop  offset="0" style="stop-color:#1228A2"/>
					<stop  offset="0.1836" style="stop-color:#112EA2"/>
					<stop  offset="0.4256" style="stop-color:#0D3EA4"/>
					<stop  offset="0.7001" style="stop-color:#085AA5"/>
					<stop  offset="0.9969" style="stop-color:#0080A8"/>
					<stop  offset="1" style="stop-color:#0080A8"/>
				</linearGradient>
				<rect x="5.7" y="9.6" class="st11" width="10" height="12.3"/>
			</g>
		</g>
	</g>
</g>
</svg>
